<svg width="31" height="31" viewBox="0 0 31 31" fill="none" xmlns="http://www.w3.org/2000/svg">
<mask id="path-1-inside-1_321_1252" fill="white">
<path d="M-1.31495e-06 0.499994C-1.64322e-06 4.50531 0.788904 8.47141 2.32167 12.1718C3.85444 15.8723 6.10105 19.2346 8.93324 22.0668C11.7654 24.8989 15.1277 27.1456 18.8282 28.6783C22.5286 30.2111 26.4947 31 30.5 31L30.5 0.499997L-1.31495e-06 0.499994Z"/>
</mask>
<path d="M-1.31495e-06 0.499994C-1.64322e-06 4.50531 0.788904 8.47141 2.32167 12.1718C3.85444 15.8723 6.10105 19.2346 8.93324 22.0668C11.7654 24.8989 15.1277 27.1456 18.8282 28.6783C22.5286 30.2111 26.4947 31 30.5 31L30.5 0.499997L-1.31495e-06 0.499994Z" stroke="#F7941F" stroke-width="4" mask="url(#path-1-inside-1_321_1252)"/>
</svg>
