<svg width="42" height="42" viewBox="0 0 42 42" fill="none" xmlns="http://www.w3.org/2000/svg">
<mask id="path-1-inside-1_321_1251" fill="white">
<path d="M42 41.5C42 36.0501 40.9266 30.6536 38.841 25.6186C36.7554 20.5836 33.6986 16.0087 29.8449 12.1551C25.9913 8.30144 21.4164 5.24457 16.3814 3.159C11.3463 1.07343 5.94986 -2.38221e-07 0.5 0V41.5H42Z"/>
</mask>
<path d="M42 41.5C42 36.0501 40.9266 30.6536 38.841 25.6186C36.7554 20.5836 33.6986 16.0087 29.8449 12.1551C25.9913 8.30144 21.4164 5.24457 16.3814 3.159C11.3463 1.07343 5.94986 -2.38221e-07 0.5 0V41.5H42Z" stroke="#045E95" stroke-width="4" mask="url(#path-1-inside-1_321_1251)"/>
</svg>
