<svg width="1280" height="350" viewBox="0 0 1280 350" fill="none" xmlns="http://www.w3.org/2000/svg">
<path d="M0 0H1280V350H0V0Z" fill="#045E95"/>
<mask id="mask0_602_706" style="mask-type:alpha" maskUnits="userSpaceOnUse" x="0" y="0" width="1280" height="350">
<path d="M0 0H1280V350H0V0Z" fill="#045E95"/>
</mask>
<g mask="url(#mask0_602_706)">
<g filter="url(#filter0_f_602_706)">
<path d="M145 137.191C61 -12.239 -35 169.834 -72.5 279.549L-120 394.25C-15.8333 466.788 194.9 613.408 204.5 619.573C216.5 627.281 686 478.576 623.5 356.167C561 233.757 250 323.979 145 137.191Z" fill="#1882AB"/>
</g>
<g filter="url(#filter1_f_602_706)">
<path d="M808 81.6137C756.4 -46.7801 603.167 -82.2032 533 -83.8656L1249 -116.055L1473.5 -11.7801C1484.33 106.096 1484 343.388 1396 349.554C1286 357.261 1230.5 256.16 1161 211.73C1091.5 167.3 872.5 242.106 808 81.6137Z" fill="#F7941F"/>
</g>
</g>
<defs>
<filter id="filter0_f_602_706" x="-344" y="-143.297" width="1197.23" height="987.156" filterUnits="userSpaceOnUse" color-interpolation-filters="sRGB">
<feFlood flood-opacity="0" result="BackgroundImageFix"/>
<feBlend mode="normal" in="SourceGraphic" in2="BackgroundImageFix" result="shape"/>
<feGaussianBlur stdDeviation="112" result="effect1_foregroundBlur_602_706"/>
</filter>
<filter id="filter1_f_602_706" x="309" y="-340.055" width="1393.34" height="914.023" filterUnits="userSpaceOnUse" color-interpolation-filters="sRGB">
<feFlood flood-opacity="0" result="BackgroundImageFix"/>
<feBlend mode="normal" in="SourceGraphic" in2="BackgroundImageFix" result="shape"/>
<feGaussianBlur stdDeviation="112" result="effect1_foregroundBlur_602_706"/>
</filter>
</defs>
</svg>
