<svg width="48" height="41" viewBox="0 0 48 41" fill="none" xmlns="http://www.w3.org/2000/svg">
<path d="M11.393 21.2988C7.61896 13.8895 10.8124 6.40442 15.5458 2.95853C20.7083 -0.80292 27.6506 -0.777676 32.7626 3.03427C37.5591 6.60638 40.4875 14.0662 36.7891 21.324C36.9785 21.324 37.1426 21.324 37.3066 21.324C39.402 21.324 41.4973 21.324 43.5926 21.324C45.9151 21.324 47.5307 22.9523 47.5307 25.2874C47.5307 29.213 47.5307 33.1259 47.5307 37.0514C47.5307 39.3487 45.9025 40.9896 43.6052 40.9896C30.6042 40.9896 17.5906 40.9896 4.5896 40.9896C2.29234 40.9896 0.664062 39.3613 0.664062 37.064C0.664062 33.1259 0.664062 29.1877 0.664062 25.2496C0.664062 22.9523 2.29234 21.3366 4.60223 21.3366C6.82375 21.3366 9.04528 21.3366 11.2668 21.3366C11.2921 21.3114 11.3299 21.3114 11.393 21.2988ZM41.4973 39.4623C42.3051 39.4623 43.0498 39.4749 43.8071 39.4623C45.0441 39.437 46.0287 38.4651 46.0287 37.2281C46.0413 33.1764 46.0413 29.1372 46.0287 25.0855C46.0287 23.8232 45.0315 22.8513 43.7693 22.8387C41.2322 22.8261 38.6951 22.8261 36.158 22.8513C35.9813 22.8513 35.7415 22.9775 35.6279 23.129C33.4695 25.9312 30.6799 27.7488 27.234 28.544C27.0195 28.5945 26.7796 28.7586 26.6408 28.9353C26.0223 29.7557 25.4417 30.6014 24.8484 31.4219C24.3688 32.0782 23.8513 32.0782 23.3842 31.4219C22.7784 30.5762 22.1851 29.7305 21.5666 28.8848C21.453 28.7333 21.2763 28.5818 21.0996 28.544C17.5906 27.7614 14.7632 25.9312 12.5795 23.0785C12.4786 22.9523 12.2766 22.8387 12.1251 22.8387C9.53755 22.8261 6.9626 22.8134 4.37502 22.8387C3.18853 22.8513 2.22923 23.8358 2.19136 25.0223C2.17874 25.4894 2.19136 25.969 2.19136 26.436C2.19136 29.9955 2.19136 33.555 2.19136 37.1145C2.19136 38.2127 2.8351 39.1972 3.85751 39.3487C4.79156 39.4875 5.75086 39.3739 6.72277 39.3739C6.72277 38.2001 6.72277 37.0009 6.72277 35.8018C6.72277 34.3629 7.68207 33.4036 9.13364 33.4036C19.1179 33.4036 29.1021 33.4036 39.0864 33.4036C40.5632 33.4036 41.4973 34.3502 41.4973 35.8397C41.4973 37.0388 41.4973 38.2127 41.4973 39.4623ZM24.1037 29.8441C24.6212 29.1246 25.1135 28.4809 25.5427 27.8119C25.8203 27.3827 26.1864 27.1808 26.6787 27.0798C33.4568 25.8049 38.0766 18.9131 36.726 12.135C35.3376 5.19268 28.9759 0.737003 21.9958 1.83514C14.9399 2.93329 10.0803 9.90081 11.4688 16.9062C12.5038 22.1192 16.4041 26.0448 21.6297 27.105C22.0463 27.1934 22.3492 27.3701 22.589 27.7235C23.0687 28.4178 23.5736 29.0994 24.1037 29.8441ZM39.9573 37.9855C29.3546 37.9855 18.8023 37.9855 8.25008 37.9855C8.25008 38.4904 8.25008 38.9574 8.25008 39.437C18.8276 39.437 29.3798 39.437 39.9573 39.437C39.9573 38.9574 39.9573 38.4904 39.9573 37.9855ZM8.22483 36.4077C18.8402 36.4077 29.3925 36.4077 39.9447 36.4077C40.0583 35.1202 39.8816 34.9309 38.6446 34.9309C28.9128 34.9309 19.181 34.9309 9.46182 34.9309C9.31035 34.9309 9.14626 34.9182 8.99479 34.9309C8.54039 34.9561 8.2627 35.2338 8.23745 35.6756C8.21221 35.9154 8.22483 36.1552 8.22483 36.4077Z" fill="#045E95"/>
<path d="M42.2546 24.3516C43.4789 24.3516 44.5139 25.374 44.5139 26.5983C44.5139 27.8606 43.4915 28.883 42.2419 28.883C41.0049 28.883 39.9952 27.8606 39.9825 26.6362C39.9699 25.374 40.9923 24.3516 42.2546 24.3516ZM42.2419 25.8536C41.838 25.8536 41.4972 26.1944 41.4972 26.5983C41.4972 27.0022 41.8254 27.3557 42.2293 27.3557C42.6458 27.3683 43.0119 27.0149 42.9993 26.5857C42.9993 26.1944 42.6458 25.8536 42.2419 25.8536Z" fill="#045E95"/>
<path d="M24.1275 11.1298C24.2032 11.0541 24.2537 11.0036 24.3168 10.9531C24.7965 10.5871 24.948 10.1705 24.8848 9.51419C24.6072 6.38385 27.6239 3.98561 30.628 4.86918C31.5116 5.13424 31.663 5.74012 31.0067 6.39648C30.6659 6.73728 30.3124 7.0907 29.9716 7.43151C29.29 8.11311 29.2774 8.15098 29.4289 9.18601C30.0979 9.28699 30.7037 9.27436 31.1834 8.64325C31.4989 8.21409 31.9281 7.87329 32.3068 7.49462C32.8369 6.98972 33.4302 7.12857 33.67 7.79755C34.806 10.8395 32.0543 14.2223 28.8483 13.7048C28.3939 13.6291 28.0909 13.7174 27.8385 14.1466C27.9394 14.2476 28.053 14.3738 28.1666 14.5C29.9338 16.2671 31.7135 18.0469 33.4806 19.814C34.0613 20.3946 34.0613 20.7228 33.4933 21.2908C32.6223 22.1618 31.7514 23.0327 30.8931 23.9036C30.2872 24.4969 29.9843 24.5095 29.391 23.9163C27.6365 22.1618 25.8694 20.3946 24.1149 18.6401C23.9887 18.5139 23.9003 18.3751 23.7993 18.2362C23.3575 18.5013 23.2187 18.7663 23.2818 19.246C23.4964 20.8995 22.9284 22.3006 21.6283 23.3356C20.3661 24.358 18.9145 24.6105 17.3619 24.093C16.7056 23.8658 16.5794 23.2599 17.059 22.755C17.3998 22.389 17.7406 21.9977 18.1319 21.6947C18.7504 21.2151 18.9524 20.6218 18.7378 19.8392C18.1193 19.7761 17.526 19.7004 17.0464 20.3441C16.7182 20.7859 16.289 21.1393 15.8851 21.518C15.3297 22.0608 14.7239 21.8967 14.4714 21.1646C13.449 18.1352 16.0114 14.9292 19.1922 15.3078C19.7476 15.3709 20.0884 15.2573 20.4039 14.8534C20.4923 14.7398 20.5933 14.6515 20.7069 14.5252C20.3408 14.0456 19.9748 13.6164 19.2805 13.7427C18.6999 13.8563 18.2708 13.5912 17.8668 13.1747C16.8192 12.0765 15.7337 11.0289 14.6734 9.95597C14.0928 9.37534 14.0928 9.05979 14.6608 8.47916C15.7968 7.34315 16.9328 6.20714 18.0688 5.07113C18.6242 4.52837 18.9524 4.52837 19.5077 5.07113C20.6059 6.16927 21.704 7.29266 22.8274 8.37818C23.1935 8.7316 23.3575 9.11027 23.3323 9.62779C23.3197 10.524 23.3449 10.524 24.1275 11.1298ZM24.9101 14.1087C24.0013 13.1999 23.1051 12.329 22.2342 11.4202C22.0322 11.2056 21.8302 10.8395 21.8555 10.5745C21.9438 9.77926 21.6283 9.24912 21.0603 8.74423C20.2903 8.03738 19.5708 7.26742 18.8892 6.58581C17.9552 7.51986 17.0716 8.40342 16.1754 9.31223C16.958 10.0948 17.8037 10.89 18.5989 11.7483C18.965 12.1396 19.3436 12.3416 19.8738 12.2532C20.4165 12.1649 20.8205 12.3921 21.1991 12.796C21.8807 13.5155 22.6002 14.1971 23.2944 14.9039C23.4333 15.0428 23.4964 15.2573 23.5974 15.4214C24.1149 14.8913 24.4809 14.5252 24.9101 14.1087ZM24.5314 16.7342C26.4248 18.6275 28.3181 20.5209 30.1484 22.3511C30.7416 21.7578 31.3727 21.1393 31.9155 20.584C30.0474 18.7159 28.154 16.8225 26.2985 14.967C25.7432 15.5477 25.1247 16.1662 24.5314 16.7342ZM32.3573 9.74139C32.3194 9.71615 32.2689 9.67828 32.231 9.65303C32.0669 9.84237 31.9029 10.0191 31.7388 10.2084C31.4232 10.6123 31.0193 10.7764 30.5018 10.7386C29.9212 10.7007 29.3405 10.7386 28.7599 10.7259C28.1666 10.7133 27.889 10.4482 27.889 9.85499C27.8763 9.19863 27.8511 8.52965 27.9016 7.87329C27.9268 7.58297 28.0783 7.29266 28.2424 7.04021C28.4191 6.77515 28.6968 6.57319 28.924 6.33336C28.722 6.28287 28.5832 6.2955 28.457 6.34599C26.9297 6.83826 26.0461 8.44129 26.5005 9.99384C26.6646 10.5492 26.5636 10.9279 26.1471 11.2939C25.8189 11.5842 25.516 11.8998 25.1625 12.2532C25.415 12.4931 25.6169 12.7076 25.8568 12.897C25.9577 12.9727 26.1218 12.9853 26.2607 13.0232C26.8161 13.1999 27.0811 12.7707 27.3714 12.4552C27.7249 12.0513 28.1035 11.9629 28.6337 12.1144C30.1484 12.5562 31.7261 11.7231 32.2563 10.2589C32.2815 10.0948 32.3194 9.90548 32.3573 9.74139ZM15.9987 19.3975C16.1628 19.1955 16.3395 18.9936 16.491 18.779C16.7939 18.3877 17.1979 18.2488 17.6901 18.2741C18.2581 18.3119 18.8261 18.2741 19.3941 18.2867C20.0505 18.2867 20.3156 18.5518 20.3282 19.1955C20.3282 19.8392 20.3661 20.483 20.3156 21.1267C20.2903 21.417 20.1389 21.72 19.9748 21.9598C19.7981 22.2249 19.5204 22.4394 19.2427 22.7298C20.6185 22.6793 22.2089 21.1267 21.7671 19.2965C21.5652 18.476 21.7166 17.9333 22.3604 17.4536C22.4361 17.4031 22.5497 17.3274 22.5497 17.2517C22.575 16.9361 22.6633 16.5827 22.5623 16.305C22.4487 16.0021 22.171 15.7622 21.9186 15.4467C21.4642 15.9263 21.136 16.2419 20.8331 16.5827C20.5049 16.9614 20.1389 17.0118 19.6466 16.9109C19.1164 16.8099 18.5484 16.772 18.0309 16.8856C16.8571 17.1507 15.8851 18.2993 15.9987 19.3975Z" fill="#045E95"/>
</svg>
